/* eslint-disable @typescript-eslint/no-unused-vars */
<svg viewBox="0 0 150 150" xmlns="http://www.w3.org/2000/svg">
  <path
    d="M75 10C39.7 10 11 38.7 11 74s28.7 64 64 64 64-28.7 64-64S110.3 10 75 10z"
    fill="#860038"
  />
  <path
    d="M75 20c-29.8 0-54 24.2-54 54s24.2 54 54 54 54-24.2 54-54-24.2-54-54-54zm0 98c-24.3 0-44-19.7-44-44s19.7-44 44-44 44 19.7 44 44-19.7 44-44 44z"
    fill="#FDBB30"
  />
  <path
    d="M75 40c-18.8 0-34 15.2-34 34s15.2 34 34 34 34-15.2 34-34-15.2-34-34-34zm0 58c-13.3 0-24-10.7-24-24s10.7-24 24-24 24 10.7 24 24-10.7 24-24 24z"
    fill="#041E42"
  />
  <path
    d="M75 50c-13.3 0-24 10.7-24 24s10.7 24 24 24 24-10.7 24-24-10.7-24-24-24zm0 38c-7.7 0-14-6.3-14-14s6.3-14 14-14 14 6.3 14 14-6.3 14-14 14z"
    fill="#FFFFFF"
  />
</svg>
