<svg width="256" height="256" viewBox="0 0 256 256" fill="none" xmlns="http://www.w3.org/2000/svg">
<g clip-path="url(#clip0_10_1082)">
<path d="M229.653 74.8923V59.9384L226.004 56.2417C179.044 11.5711 78.4696 70.2177 44.3406 98.4797L27.4788 124.714L48.4427 119.515C16.2217 159.845 27.7411 186.342 29.1005 189.085C32.4872 198.625 40.2384 206.257 52.7834 211.265C62.3233 215.081 73.1273 215.535 82.4048 215.105C122.449 213.245 169.79 188.274 200.366 161.634L201.081 161.014L207.259 130.391L195.334 136.997C171.044 147.706 146.197 157.1 120.898 165.14C99.1712 171.913 89.202 173.01 82.0948 171.365L81.1646 171.174C80.5165 170.962 79.945 170.564 79.521 170.029C79.097 169.495 78.8392 168.848 78.7797 168.169C78.4458 154.574 101.819 125.239 113.6 112.718C124.571 100.936 141.815 88.0097 156.411 81.8564C166.189 77.7542 172.486 76.1086 175.491 76.4187C174.393 79.7008 173.038 82.8908 171.436 85.9586C171.436 85.9586 155.814 116.773 155.123 118.037L229.653 74.8923Z" fill="#BB945C"/>
<path d="M136.926 72.6981C123.45 79.853 108.02 94.1629 103.178 99.2429C63.8021 141.195 36.2079 197.242 122.449 170.387C147.987 162.278 173.067 152.788 197.576 141.958C79.7815 241.459 -31.4063 199.794 78.0166 95.2361C68.0474 97.5019 58.0066 99.6722 48.1566 102.391C83.2397 73.3897 179.283 19.3461 222.189 60.1769L176.254 88.272C195.93 49.7069 160.489 58.7698 136.83 72.6981" fill="#6A0032"/>
</g>
<defs>
<clipPath id="clip0_10_1082">
<rect width="203.653" height="175.248" fill="white" transform="translate(26 40)"/>
</clipPath>
</defs>
</svg>
