<svg xmlns:xlink="http://www.w3.org/1999/xlink" xmlns="http://www.w3.org/2000/svg" viewBox="0 0 34.73 34.728" height="300" width="300"><defs><style>.cls-1{fill:#fff;}.cls-2{fill:#ba9653;}.cls-3{fill:#2d2926;}.cls-4{fill:#231f1f;}.cls-5{fill:#005a8b;}.cls-6{fill:#236092;}.cls-7{fill:#5b89b4;}</style></defs><title>Cleveland Monsters logo</title><path class="cls-1" d="M10.99591,18.3295c.007-.015.016-.028.023-.042v-.019C11.01192,18.2885,11.00291,18.3095,10.99591,18.3295Zm12.773-.048v.015c.006.011.012.02.018.032C23.78191,18.3125,23.77492,18.2975,23.76892,18.2815Z"/><path class="cls-1" d="M27.91951,17.27579c.001.029.001.058.001.087,0,.191-.004.382-.016.569a10.55635,10.55635,0,0,1-21.087-.098c-.005-.156-.008-.314-.008-.471v-.065a10.55527,10.55527,0,0,1,21.11-.022Z"/><path class="cls-2" d="M34.718,16.683a16.99079,16.99079,0,0,0-.157-1.735,16.37552,16.37552,0,0,0-.351-1.813c-.077-.318-.169-.643-.271-.968-.108-.337-.211-.639-.317-.921-.045-.12-.092-.237-.137-.347A17.36469,17.36469,0,0,0,21.092.4,17.53972,17.53972,0,0,0,17.365,0,17.372,17.372,0,0,0,1.161,11.11a16.65876,16.65876,0,0,0-.636,2.011A17.20565,17.20565,0,0,0,0,17.363a17.36625,17.36625,0,0,0,33.021,7.519,16.03026,16.03026,0,0,0,.628-1.48c.094-.252.179-.498.255-.734l.075-.118v-.119c.058-.192.115-.392.174-.613.147-.561.267-1.128.357-1.687a16.66853,16.66853,0,0,0,.186-1.689c.022-.348.034-.712.034-1.079C34.73,17.11,34.727,16.896,34.718,16.683Zm-.859,1.705a15.78808,15.78808,0,0,1-.178,1.61c-.043.272-.094.543-.151.812-.057.268-.121.535-.189.797-.031.118-.064.236-.098.352-.033.117-.067.232-.103.346l-.004.011c-.043.132-.086.266-.132.399-.045.132-.093.263-.141.394-.043.119-.089.239-.137.358-.094.237-.193.473-.298.705q-.078.174-.162.345a16.5327,16.5327,0,0,1-26.511,4.61c-.299-.295-.585-.601-.862-.917q-.51452-.594-.975-1.234-.276-.3855-.529-.785c-.112-.179-.221-.358-.327-.542-.054-.09-.105-.182-.157-.275-.102-.185-.201-.371-.297-.56A16.503,16.503,0,0,1,.839,17.363a16.36666,16.36666,0,0,1,.498-4.035c.02-.082.04-.163.062-.245.044-.163.089-.323.137-.485q.072-.24.152-.477c.078-.237.164-.473.254-.705A16.52676,16.52676,0,0,1,29.211,5.839q.45152.465.869.967A16.52473,16.52473,0,0,1,31.799,9.31q.129.2295.249.463c.082.155.159.313.234.471.076.159.149.318.22.479.07.162.139.323.204.488.045.109.087.218.128.327.054.146.108.293.159.44s.099.295.147.444c.048.15.092.301.135.453.043.153.083.305.121.46a15.74647,15.74647,0,0,1,.335,1.728,16.0795,16.0795,0,0,1,.148,1.654c.009.214.011.428.011.646,0,.256-.005.514-.016.769C33.869,18.217,33.865,18.302,33.859,18.388Z"/><path class="cls-1" d="M33.89091,17.3633c0-.219-.001-.432-.012-.646.009.214.011.427.011.646,0,.256-.005.514-.016.769C33.88492,17.8773,33.89091,17.6193,33.89091,17.3633Zm-.648,4.596c.035-.117.067-.235.099-.353.069-.262.131-.528.188-.796-.057.268-.121.534-.189.796C33.30992,21.7243,33.27692,21.8423,33.24292,21.9593Zm-.537-10.748c.045.109.087.218.128.327.054.146.108.293.159.44-.05-.147-.102-.294-.157-.44-.041-.109-.085-.218-.13-.327m.02,12.256c-.094.237-.193.473-.298.705.105-.232.205-.468.298-.705m-15.361-16.66a10.55551,10.55551,0,0,0-10.556,10.49v.066c0,.157.003.314.009.47a10.55637,10.55637,0,0,0,21.087.099c.011-.188.016-.379.016-.569,0-.029,0-.059-.002-.088A10.555,10.555,0,0,0,17.36491,6.8073Zm-6.346,11.461v.019c-.006.012-.013.023-.02.035.006-.017.014-.036.02-.054m12.75.028v-.015l.009.024a.12343.12343,0,0,1,.008.023l-.008-.016Z"/><path class="cls-1" d="M23.76921,18.2813v.015l.017.032a.44526.44526,0,0,0-.017-.047m-12.75.006v-.019c-.007.02-.016.041-.023.061C11.0032,18.3153,11.01221,18.3023,11.01921,18.2873Z"/><path class="cls-3" d="M33.87892,16.7167a16.36405,16.36405,0,0,0-.148-1.654,15.79461,15.79461,0,0,0-.335-1.728c-.038-.154-.079-.307-.121-.46-.044-.151-.089-.303-.136-.453-.048-.148-.096-.297-.147-.444s-.104-.294-.158-.439c-.041-.109-.083-.219-.128-.328q-.099-.246-.204-.487c-.072-.162-.144-.321-.22-.479q-.114-.2385-.234-.472-.12-.234-.249-.463a16.59786,16.59786,0,0,0-1.719-2.504q-.41849-.4995-.87-.967a16.53175,16.53175,0,0,0-27.268,5.578c-.09.231-.176.467-.255.704-.052.159-.103.318-.151.478-.048.161-.093.321-.137.485-.022.081-.042.163-.063.244a16.60345,16.60345,0,0,0,.402,9.429,16.6797,16.6797,0,0,0,.869,2.057q.144.2835.297.561c.053.093.104.185.157.275.107.183.216.362.328.541q.2535.4005.528.785.459.6405.976,1.235.414.474.862.917a16.52873,16.52873,0,0,0,26.511-4.611q.0825-.1695.162-.345c.104-.231.203-.467.298-.704.048-.12.093-.239.137-.358.048-.131.096-.262.141-.395.045-.132.089-.266.131-.399l.005-.01c.036-.115.069-.23.103-.347.033-.116.067-.234.097-.352.069-.262.133-.528.19-.796.056-.269.107-.54.151-.812a16.09883,16.09883,0,0,0,.178-1.611c.005-.085.01-.17.014-.256.012-.255.016-.512.016-.769C33.88892,17.1447,33.88791,16.9307,33.87892,16.7167Z"/><path class="cls-1" d="M7.98691,9.9144a1.45127,1.45127,0,0,1-.484.395.96955.96955,0,0,1-.549.092,1.1127,1.1127,0,0,1-.565-.264l-.099-.081a.41779.41779,0,0,0-.154-.071.30123.30123,0,0,0-.18-.005.328.328,0,0,0-.032-.164.49.49,0,0,0-.095-.139l-.111-.09a1.10837,1.10837,0,0,1-.369-.502.95813.95813,0,0,1-.019-.559,1.43,1.43,0,0,1,.293-.551l.584-.713.409.709a.67726.67726,0,0,0-.246.125,1.27091,1.27091,0,0,0-.224.206.51609.51609,0,0,0-.129.272.38141.38141,0,0,0,.048.243.68841.68841,0,0,0,.178.21l.059.049a.47956.47956,0,0,0,.155.071.30272.30272,0,0,0,.178.005.30447.30447,0,0,0,.039.17.452.452,0,0,0,.099.139l.049.041a.76433.76433,0,0,0,.244.139.40135.40135,0,0,0,.254.004.51121.51121,0,0,0,.245-.182,1.22986,1.22986,0,0,0,.158-.259.67232.67232,0,0,0,.076-.264l.772.262Z"/><path class="cls-1" d="M8.81851,8.8937a.76583.76583,0,0,0-.089-.291,1.6256,1.6256,0,0,0-.17-.282l-.38-.48a.45549.45549,0,0,0-.136-.102.32014.32014,0,0,0-.175-.043.31935.31935,0,0,0-.001-.179.43417.43417,0,0,0-.069-.155l-.38-.48a1.65917,1.65917,0,0,0-.238-.23.7663.7663,0,0,0-.263-.154l.839-.665a.78322.78322,0,0,0,.09.293,1.732,1.732,0,0,0,.17.282l.38.479a.45952.45952,0,0,0,.136.102.31512.31512,0,0,0,.174.042.31843.31843,0,0,0,.002.181.4603.4603,0,0,0,.069.155l.379.477.419-.332a1.18152,1.18152,0,0,0,.209-.221.663.663,0,0,0,.131-.242l.699.42Z"/><path class="cls-1" d="M10.94061,7.28629a.75894.75894,0,0,0-.025-.303,1.66353,1.66353,0,0,0-.107-.314l-.269-.547a.43423.43423,0,0,0-.11-.129.328.328,0,0,0-.163-.079.32387.32387,0,0,0,.038-.176.46411.46411,0,0,0-.035-.166l-.27-.549a1.51238,1.51238,0,0,0-.182-.274.7724.7724,0,0,0-.225-.208l2.058-1.01.081.813a.706.706,0,0,0-.277.012,1.32523,1.32523,0,0,0-.289.094l-.48.236.269.549.138-.067a1.67187,1.67187,0,0,0,.275-.182.74011.74011,0,0,0,.205-.225l.404.823a.69955.69955,0,0,0-.302.028,1.50232,1.50232,0,0,0-.312.105l-.138.068.269.547.481-.236a1.159,1.159,0,0,0,.251-.17.67881.67881,0,0,0,.18-.21l.593.559Z"/><path class="cls-1" d="M14.11331,5.9716a.30879.30879,0,0,0,.001-.187,1.57173,1.57173,0,0,0-.172-.401l-.338-.582a.45744.45744,0,0,0-.122-.124.318.318,0,0,0-.166-.064.35562.35562,0,0,0,.012-.25.365.365,0,0,0-.032-.092l-.315-.545a2.972,2.972,0,0,0-.209-.292,1.70606,1.70606,0,0,0-.225-.233l1.047-.25a.57.57,0,0,0,.008.346,1.22575,1.22575,0,0,0,.093.259l.58,1.12.013-1.261a1.24108,1.24108,0,0,0-.034-.273.5612.5612,0,0,0-.149-.313l1.047-.249a1.594,1.594,0,0,0-.092.309,2.46955,2.46955,0,0,0-.056.355l-.036.629a.3399.3399,0,0,0,.009.097.36094.36094,0,0,0,.125.218.29339.29339,0,0,0-.118.131.4657.4657,0,0,0-.053.166l-.039.671a1.57422,1.57422,0,0,0,.026.439.29813.29813,0,0,0,.087.163Z"/><path class="cls-1" d="M16.129,5.5048a.75712.75712,0,0,0,.107-.285,1.60653,1.60653,0,0,0,.038-.329l-.008-.61a.44729.44729,0,0,0-.045-.164.31577.31577,0,0,0-.113-.141.30667.30667,0,0,0,.109-.142.468.468,0,0,0,.041-.165l-.008-.612a1.74,1.74,0,0,0-.047-.326.79012.79012,0,0,0-.115-.284l2.292-.031-.275.77a.71873.71873,0,0,0-.256-.108,1.24329,1.24329,0,0,0-.301-.038l-.535.007.008.612.154-.002a1.64252,1.64252,0,0,0,.325-.047.73136.73136,0,0,0,.282-.115l.013.917a.71487.71487,0,0,0-.285-.105,1.5089,1.5089,0,0,0-.327-.038l-.154.002.009.61.535-.008a1.1927,1.1927,0,0,0,.3-.046.67564.67564,0,0,0,.252-.112l.296.759Z"/><path class="cls-1" d="M18.74341,5.5309a.77218.77218,0,0,0,.164-.256,1.617,1.617,0,0,0,.106-.312l.12-.6a.44939.44939,0,0,0-.01-.17.33461.33461,0,0,0-.081-.162.30481.30481,0,0,0,.136-.116.45188.45188,0,0,0,.075-.153l.119-.6a1.62008,1.62008,0,0,0,.022-.33.76634.76634,0,0,0-.052-.3l1.049.21a.75834.75834,0,0,0-.164.258,1.596,1.596,0,0,0-.106.312l-.12.6a.44518.44518,0,0,0,.01.169.3075.3075,0,0,0,.081.16.32087.32087,0,0,0-.137.119.44522.44522,0,0,0-.074.152l-.12.598.525.105a1.204,1.204,0,0,0,.304.017.66674.66674,0,0,0,.27-.057l.131.805Z"/><path class="cls-1" d="M22.6842,6.6557a.5646.5646,0,0,0,.205-.281,1.16676,1.16676,0,0,0,.085-.259l-.559-.25a1.27228,1.27228,0,0,0-.139.24.54658.54658,0,0,0-.071.337l-.984-.439a1.461,1.461,0,0,0,.264-.188,2.8,2.8,0,0,0,.26-.248l.409-.477a.30181.30181,0,0,0,.051-.084.3458.3458,0,0,0,.034-.247.31107.31107,0,0,0,.174-.034.47392.47392,0,0,0,.142-.098l.44-.511a1.587,1.587,0,0,0,.244-.363.31273.31273,0,0,0,.033-.184l.837.374a.31814.31814,0,0,0-.114.145,1.54411,1.54411,0,0,0-.106.427l-.088.668a.46546.46546,0,0,0,.022.171.30486.30486,0,0,0,.091.153.35666.35666,0,0,0-.163.191.30108.30108,0,0,0-.027.093l-.08.623a2.47182,2.47182,0,0,0-.011.359,1.47677,1.47677,0,0,0,.034.322Zm.508-1.781-.388.497.279.124Z"/><path class="cls-1" d="M25.27861,8.2989l.323-1.678-.557.728a1.60923,1.60923,0,0,0-.166.287.73239.73239,0,0,0-.084.292l-.85-.65a.77491.77491,0,0,0,.26-.158,1.70493,1.70493,0,0,0,.234-.235l.37-.484a.45014.45014,0,0,0,.066-.156.32439.32439,0,0,0-.001-.181.31539.31539,0,0,0,.173-.045.43464.43464,0,0,0,.134-.104l.372-.486a1.72855,1.72855,0,0,0,.165-.285.76564.76564,0,0,0,.085-.295l.728.558-.323,1.678.558-.728a1.50944,1.50944,0,0,0,.164-.285.73311.73311,0,0,0,.087-.293l.85.65a.7541.7541,0,0,0-.261.16,1.57219,1.57219,0,0,0-.232.233l-.372.486a.47055.47055,0,0,0-.067.156.3075.3075,0,0,0,.003.179.31262.31262,0,0,0-.175.047.43821.43821,0,0,0-.133.104l-.371.485a1.61931,1.61931,0,0,0-.166.286.71522.71522,0,0,0-.084.293Z"/><path class="cls-1" d="M26.23091,9.0783a.74643.74643,0,0,0,.29-.092,1.63846,1.63846,0,0,0,.282-.173l.474-.383a.45773.45773,0,0,0,.101-.137.31966.31966,0,0,0,.042-.176.31175.31175,0,0,0,.179-.002.44473.44473,0,0,0,.154-.07l.477-.385a1.60778,1.60778,0,0,0,.227-.238.75534.75534,0,0,0,.152-.266l.816,1.011a1.33775,1.33775,0,0,1,.267.527,1.00806,1.00806,0,0,1-.025.555,1.118,1.118,0,0,1-.373.499l-.113.091a.46581.46581,0,0,0-.097.139.28418.28418,0,0,0-.032.16.29665.29665,0,0,0-.165-.001.47309.47309,0,0,0-.156.065l-.112.091a1.11833,1.11833,0,0,1-.567.26.99752.99752,0,0,1-.546-.093,1.29576,1.29576,0,0,1-.459-.372Zm1.482.746a.45534.45534,0,0,0,.235-.028.81545.81545,0,0,0,.242-.141l.047-.038a.40235.40235,0,0,0,.101-.136.31787.31787,0,0,0,.042-.176.3001.3001,0,0,0,.178-.002.40156.40156,0,0,0,.155-.07,1.23183,1.23183,0,0,0,.241-.241.34014.34014,0,0,0-.005-.441l-.24-.297-.479.388a.45429.45429,0,0,0-.101.139.2949.2949,0,0,0-.037.169.31169.31169,0,0,0-.174.001.49544.49544,0,0,0-.158.07l-.477.386.24.297a.31507.31507,0,0,0,.19.12"/><path class="cls-1" d="M6.92691,28.3002a.72157.72157,0,0,0,.28-.118,1.51837,1.51837,0,0,0,.267-.195l.554-.532-.766.31-.425-.441.343-.752-.554.532a1.674,1.674,0,0,0-.207.259.76446.76446,0,0,0-.128.276l-.741-.772a.75982.75982,0,0,0,.281-.116,1.68223,1.68223,0,0,0,.266-.197l.44-.423a.45248.45248,0,0,0,.089-.144.32986.32986,0,0,0,.026-.179.31634.31634,0,0,0,.178-.018.45151.45151,0,0,0,.148-.083l.442-.424a1.69955,1.69955,0,0,0,.205-.257.75918.75918,0,0,0,.129-.278l.635.661-.65,1.474,1.499-.591.635.661a.72182.72182,0,0,0-.282.118,1.55719,1.55719,0,0,0-.265.195l-.441.424a.44782.44782,0,0,0-.089.145.30259.30259,0,0,0-.025.177.31608.31608,0,0,0-.18.02.42745.42745,0,0,0-.148.082l-.439.423a1.733,1.733,0,0,0-.208.259.72008.72008,0,0,0-.127.276Z"/><path class="cls-1" d="M9.04141,29.9025a.9788.9788,0,0,1-.158-.53,1.11549,1.11549,0,0,1,.187-.594l.068-.108a.449.449,0,0,0,.05-.162.33255.33255,0,0,0-.019-.18.32065.32065,0,0,0,.168-.061.46469.46469,0,0,0,.123-.117l.067-.109a1.11513,1.11513,0,0,1,.449-.433.99716.99716,0,0,1,.546-.095,1.41555,1.41555,0,0,1,.982.609.99961.99961,0,0,1,.16.533,1.11415,1.11415,0,0,1-.188.593l-.076.124a.47765.47765,0,0,0-.044.163.27255.27255,0,0,0,.023.162.29383.29383,0,0,0-.157.054.44964.44964,0,0,0-.126.112l-.077.123a1.11681,1.11681,0,0,1-.448.432.99554.99554,0,0,1-.548.093,1.3065,1.3065,0,0,1-.554-.198,1.33893,1.33893,0,0,1-.428-.411m.968-.06a.45557.45557,0,0,0,.213-.104.81756.81756,0,0,0,.182-.213l.031-.051a.40611.40611,0,0,0,.051-.162.30867.30867,0,0,0-.017-.178.2999.2999,0,0,0,.166-.063.42226.42226,0,0,0,.123-.117,1.22565,1.22565,0,0,0,.148-.307.354.354,0,0,0-.586-.363,1.21849,1.21849,0,0,0-.213.271.47331.47331,0,0,0-.05.165.28945.28945,0,0,0,.022.172.31141.31141,0,0,0-.165.058.49439.49439,0,0,0-.125.118l-.034.055a.85375.85375,0,0,0-.11.258.44508.44508,0,0,0,.003.238.32168.32168,0,0,0,.143.174.31508.31508,0,0,0,.218.049"/><path class="cls-1" d="M12.95631,31.9833l-.243-1.692-.289.871a1.68528,1.68528,0,0,0-.063.325.75637.75637,0,0,0,.016.304l-1.016-.337a.7409.7409,0,0,0,.195-.234,1.70348,1.70348,0,0,0,.144-.298l.192-.579a.4646.4646,0,0,0,.01-.17.31817.31817,0,0,0-.059-.17.3142.3142,0,0,0,.149-.099.45191.45191,0,0,0,.092-.142l.193-.581a1.63266,1.63266,0,0,0,.061-.323.77218.77218,0,0,0-.014-.306l.87.288.243,1.692.289-.871a1.54225,1.54225,0,0,0,.062-.323.75334.75334,0,0,0-.013-.305l1.016.336a.73267.73267,0,0,0-.195.237,1.58528,1.58528,0,0,0-.143.296l-.193.581a.45374.45374,0,0,0-.011.169.30269.30269,0,0,0,.061.169.30558.30558,0,0,0-.15.1.427.427,0,0,0-.092.143l-.192.579a1.61134,1.61134,0,0,0-.063.325.70677.70677,0,0,0,.016.304Z"/><path class="cls-1" d="M14.75351,32.4256c.065-.136.116-.24.152-.314s.102-.216.2-.421a.67294.67294,0,0,0,.243.13,1.23144,1.23144,0,0,0,.296.069l.265.024a1.2514,1.2514,0,0,0,.307-.003.12786.12786,0,0,0,.118-.12.17435.17435,0,0,0-.034-.113.67.67,0,0,0-.103-.105c-.042-.034-.087-.068-.135-.1a.477.477,0,0,0-.19-.055.29875.29875,0,0,0-.132.016.25842.25842,0,0,0-.04-.151.54564.54564,0,0,0-.102-.133l-.163-.115a1.60914,1.60914,0,0,1-.255-.216.86683.86683,0,0,1-.181-.279.77718.77718,0,0,1-.047-.37.66213.66213,0,0,1,.19-.428.90357.90357,0,0,1,.429-.226,1.80435,1.80435,0,0,1,.581-.036l1.102.097-.351.738a.69724.69724,0,0,0-.243-.133,1.2314,1.2314,0,0,0-.296-.069l-.266-.024a.72077.72077,0,0,0-.29.015.1431.1431,0,0,0-.095.129.243.243,0,0,0,.118.199,1.263,1.263,0,0,0,.226.153.4622.4622,0,0,0,.141.029.2969.2969,0,0,0,.129-.014.27064.27064,0,0,0,.048.162.45139.45139,0,0,0,.112.135c.184.134.312.231.382.292a.78429.78429,0,0,1,.199.266.74518.74518,0,0,1,.046.37.66559.66559,0,0,1-.185.423.87715.87715,0,0,1-.437.237,1.90509,1.90509,0,0,1-.637.038Z"/><path class="cls-1" d="M18.73541,32.489a.75725.75725,0,0,0,.07-.296,1.6745,1.6745,0,0,0-.005-.332l-.086-.603a.42571.42571,0,0,0-.065-.157.32987.32987,0,0,0-.13-.126.32377.32377,0,0,0,.09-.155.45393.45393,0,0,0,.019-.168l-.087-.606-.152.022a1.31023,1.31023,0,0,0-.292.084.7153.7153,0,0,0-.235.146l-.391-.718,2.723-.389-.177.799a.67336.67336,0,0,0-.264-.074,1.28154,1.28154,0,0,0-.304,0l-.152.022.087.606a.42509.42509,0,0,0,.065.156.3.3,0,0,0,.13.124.3124.3124,0,0,0-.09.157.45331.45331,0,0,0-.019.169l.086.604a1.76588,1.76588,0,0,0,.089.319.72729.72729,0,0,0,.15.264Z"/><path class="cls-1" d="M21.49982,31.97589a.76479.76479,0,0,0,0-.305,1.62376,1.62376,0,0,0-.08-.321l-.222-.568a.43888.43888,0,0,0-.099-.138.32709.32709,0,0,0-.155-.092.32724.32724,0,0,0,.052-.172.48025.48025,0,0,0-.02-.168l-.223-.57a1.576,1.576,0,0,0-.159-.289.745.745,0,0,0-.207-.225l2.135-.835.013.817a.69586.69586,0,0,0-.277-.01,1.25674,1.25674,0,0,0-.295.069l-.499.195.223.57.143-.056a1.65706,1.65706,0,0,0,.288-.158.73945.73945,0,0,0,.224-.207l.334.854a.71417.71417,0,0,0-.304.002,1.49319,1.49319,0,0,0-.319.079l-.144.056.222.568.499-.195a1.15063,1.15063,0,0,0,.265-.149.68378.68378,0,0,0,.197-.194l.543.608Z"/><path class="cls-1" d="M25.80211,29.6968l.002.002-.127.087a.40488.40488,0,0,0-.095-.24,1.14194,1.14194,0,0,0-.36-.353.28357.28357,0,0,0-.325.017l-.244.168.173.251a1.68088,1.68088,0,0,0,.222.246.73778.73778,0,0,0,.252.171l-.882.607a.75947.75947,0,0,0-.069-.296,1.6819,1.6819,0,0,0-.152-.295l-.346-.502a.44391.44391,0,0,0-.128-.111.329.329,0,0,0-.172-.055.317.317,0,0,0,.011-.179.46255.46255,0,0,0-.058-.159l-.347-.504a1.71573,1.71573,0,0,0-.22-.245.78937.78937,0,0,0-.254-.172l1.071-.738a1.44352,1.44352,0,0,1,.539-.234.95654.95654,0,0,1,.542.054,1.10077,1.10077,0,0,1,.47.412.98058.98058,0,0,1,.16.938,1.81309,1.81309,0,0,1,.588.351,2.39087,2.39087,0,0,0,.264.168,1.21391,1.21391,0,0,0,.224.105Zm-1.126-1.635a.565.565,0,0,0-.267-.233.34332.34332,0,0,0-.308.072l-.316.218.521.755.316-.218c.207-.143.226-.34.054-.594"/><path class="cls-1" d="M27.22562,28.6517c-.068-.134-.121-.238-.157-.312-.036-.073-.109-.212-.213-.415a.68045.68045,0,0,0,.252-.113,1.2754,1.2754,0,0,0,.235-.193l.18-.196a1.17126,1.17126,0,0,0,.183-.245.1264.1264,0,0,0-.023-.167.17192.17192,0,0,0-.109-.042.59265.59265,0,0,0-.147.019,1.58118,1.58118,0,0,0-.161.046.468.468,0,0,0-.159.117.2744.2744,0,0,0-.068.115.24768.24768,0,0,0-.145-.06.52014.52014,0,0,0-.167-.001l-.191.06a1.68066,1.68066,0,0,1-.326.071.88853.88853,0,0,1-.331-.026.7856.7856,0,0,1-.323-.188.66761.66761,0,0,1-.224-.412.89469.89469,0,0,1,.082-.477,1.79637,1.79637,0,0,1,.325-.484l.747-.815.372.727a.72506.72506,0,0,0-.254.112,1.34374,1.34374,0,0,0-.234.193l-.18.197a.68831.68831,0,0,0-.165.24.1405.1405,0,0,0,.044.153.24718.24718,0,0,0,.229.028,1.219,1.219,0,0,0,.259-.087.45542.45542,0,0,0,.11-.094.29748.29748,0,0,0,.067-.111.27869.27869,0,0,0,.158.061.44346.44346,0,0,0,.175-.008c.218-.064.373-.107.464-.124a.77185.77185,0,0,1,.332.003.744.744,0,0,1,.322.189.65434.65434,0,0,1,.223.403.878.878,0,0,1-.077.492,1.92945,1.92945,0,0,1-.357.528Z"/><path class="cls-4" d="M11.04471,18.1359v.018a.24309.24309,0,0,1-.02.035l-.004.008c.008-.021.017-.041.024-.062Zm12.759.036.009.023-.009-.016-.01-.016v-.014l.001.002Z"/><path class="cls-2" d="M19.25151,23.5065l-.01.006.006-.009Z"/><path class="cls-2" d="M26.54932,19.48429c.006.06.009.118.013.175h-.001c-.005-.057-.006-.115-.012-.175"/><polygon class="cls-2" points="26.565 19.666 26.568 19.665 26.568 19.669 26.564 19.669 26.564 19.667 26.565 19.666"/><rect class="cls-2" x="8.2282" y="19.66477" width="0.00402" height="0.00484" transform="translate(-11.44952 11.467) rotate(-44.67135)"/><path class="cls-2" d="M8.24712,19.48429c-.006.06-.007.118-.012.175h-.001c.004-.057.007-.115.013-.175"/><path class="cls-2" d="M13.80971,27.35279c.023.009.045.016.068.025l-.023-.007-.02-.008Z"/><path class="cls-2" d="M15.54932,23.5036l.006.009-.01-.006Z"/><path class="cls-2" d="M15.86311,23.0766a42.96124,42.96124,0,0,1-5.646-1.971c.076.042.153.083.232.122a2.24359,2.24359,0,0,1,.556-1.911v-.944l-.004.006a1.19325,1.19325,0,0,0,.004-.175l.007.008v-.008c.657.638,1.322,1.375,1.947,2.043-.225.412-.096,2.07.604,1.403v-.001a1.80917,1.80917,0,0,0,.241-.486l.411.439c.01.01.019.022.029.032h.002A5.34835,5.34835,0,0,0,15.86311,23.0766Z"/><path class="cls-2" d="M24.54991,21.1216a44.54147,44.54147,0,0,1-5.625,1.958,5.33884,5.33884,0,0,0,1.625-1.446h.001c.01-.01.019-.021.029-.032l.411-.439a1.794,1.794,0,0,0,.241.486v.001c.724.665.832-1.001.613-1.404.527-.564,1.389-1.505,1.945-2.041a1.255,1.255,0,0,0,.007.18l-.007-.012v.944a2.24356,2.24356,0,0,1,.556,1.911c.069-.035.137-.07.204-.106"/><path class="cls-2" d="M27.936,17.92319a10.78583,10.78583,0,0,0-2.345-.996l.023.019c.026.022.051.044.074.067.025.022.048.045.07.068.032.032.061.066.09.101a.24556.24556,0,0,1,.029.039c.021.025.04.051.059.076l.019.026c.011.018.023.035.033.053a.124.124,0,0,1,.02.029l.018.027a.05033.05033,0,0,0,.009.016c.007.014.016.028.023.041a1.81465,1.81465,0,0,1,.087.17c.013.024.023.047.034.07.011.03.024.057.036.086.032.08.06.162.086.245l.003.01c.013.044.026.087.038.131.014.054.027.108.04.163.012.051.022.1.032.151.005.019.009.04.014.059.014.081.029.164.039.246.007.036.012.073.016.109.001.013.004.028.004.041.008.049.013.099.019.148l.002.015c.02.182.033.358.045.525-.041.041-.082.082-.124.122s-.084.08-.128.118c-.125.115-.255.225-.386.329l-.011.011c-.066.052-.133.101-.198.152h-.002v.002c-.033.025-.068.049-.102.073-.033.025-.068.049-.102.073l-.001.001c-.058.041-.114.08-.172.118l-.001.002c-.118.077-.236.151-.356.224l-.109.064c-.038.024-.077.046-.116.067-.037.021-.073.042-.111.061-.028.016-.057.032-.084.046-.067.037-.136.072-.204.107a2.24558,2.24558,0,0,0-.556-1.912v-.943a.02925.02925,0,0,1,.007.012,1.03664,1.03664,0,0,1-.007-.181l-.007.007c-.554.533-1.414,1.474-1.938,2.034.174.323.135,1.394-.22,1.539l-.017.009-.012.004-.006.001a.05535.05535,0,0,1-.023.005h-.002a.41526.41526,0,0,1-.333-.153v-.002a1.81118,1.81118,0,0,1-.242-.486l-.41.44c-.01.01-.019.022-.029.032h-.002a5.32393,5.32393,0,0,1-1.625,1.445c-.237.098-.479.2-.723.283a.15676.15676,0,0,1-.031.008,2.10151,2.10151,0,0,1-.358.088.45876.45876,0,0,1-.052.007c-.031.006-.063.009-.094.012h-.002c-.021.001-.041.004-.062.006-.027.003-.056.004-.084.005-.038.002-.082.002-.12.002h-.002c-.038,0-.082,0-.12-.002-.028-.001-.057-.002-.084-.005-.021-.002-.041-.005-.061-.006h-.003l-.047-.005c-.033-.004-.067-.008-.099-.014a2.10174,2.10174,0,0,1-.358-.088.20254.20254,0,0,1-.031-.008c-.247-.085-.492-.188-.73-.286a5.36187,5.36187,0,0,1-1.618-1.442h-.001c-.01-.01-.019-.022-.029-.032l-.411-.44a1.78261,1.78261,0,0,1-.242.486v.002c-.7.667-.828-.991-.604-1.403-.624-.669-1.29-1.405-1.946-2.043v.007l-.007-.007a1.38753,1.38753,0,0,1-.005.175l.005-.006v.943a2.24941,2.24941,0,0,0-.557,1.912c-.078-.04-.155-.08-.231-.123a.3911.3911,0,0,1-.057-.03c-.025-.013-.049-.026-.074-.041-.028-.014-.054-.029-.082-.045-.042-.025-.085-.049-.128-.076-.078-.045-.154-.091-.23-.141-.051-.032-.102-.064-.151-.096-.067-.044-.134-.089-.2-.137-.046-.032-.091-.065-.138-.099l-.009-.006c-.134-.099-.265-.2-.394-.308q-.201-.1665-.389-.345c-.042-.041-.083-.082-.124-.123.012-.171.025-.353.047-.54.007-.062.015-.125.023-.189a.4209.4209,0,0,1,.009-.049l.003-.021c.006-.042.012-.084.019-.126.004-.027.007-.053.012-.079l.001-.004c.003-.027.007-.051.012-.076l.004-.019.002-.01.039-.181c.013-.055.026-.109.041-.163.011-.043.024-.087.038-.131.013-.042.027-.083.04-.125s.029-.083.045-.124l.003-.005.053-.123c.023-.051.048-.102.074-.15.012-.02.023-.039.033-.058.006-.012.014-.025.021-.036a.05993.05993,0,0,0,.008-.016c.024-.038.047-.075.072-.11l.019-.026c.019-.025.038-.051.058-.075a.271.271,0,0,1,.029-.04c.029-.035.058-.068.09-.1.022-.023.045-.047.07-.069.023-.023.048-.045.074-.067l.024-.018a10.77385,10.77385,0,0,0-2.36,1.003c-.007-.168-.012-.337-.012-.507a10.5575,10.5575,0,1,1,21.115,0c0,.167-.004.333-.012.499Z"/><path class="cls-2" d="M15.55522,23.5124l-.01-.006.004-.003Z"/><path class="cls-2" d="M8.24712,19.48429c-.006.06-.007.118-.012.175h-.001c.004-.057.007-.115.013-.175"/><path class="cls-2" d="M15.55522,23.5124l-.01-.006.004-.003Z"/><path class="cls-2" d="M13.23741,21.80429c-.416-.033-.47-1.217-.285-1.559-.524-.561-1.386-1.502-1.939-2.035v-.008c.554.533,1.42,1.479,1.946,2.043C12.77541,20.5863,12.8284,21.7583,13.23741,21.80429Z"/><path class="cls-5" d="M8.23131,19.6657l-.003-.001v.004h.004v-.001Zm7.318,3.838-.004.003.01.006Z"/><path class="cls-5" d="M13.8098,27.3529l.025.01.02.007.023.008C13.85481,27.3689,13.83281,27.3609,13.8098,27.3529Zm-4.605-10.426v.001l-.023.019c-.026.022-.051.044-.074.067-.025.022-.048.045-.07.068-.032.032-.061.066-.09.101a.24547.24547,0,0,0-.029.039,1.76887,1.76887,0,0,1,.301-.298l-.015.003m-.962,2.732c.013-.172.028-.354.047-.54-.022.186-.035.368-.047.54"/><path class="cls-5" d="M13.80962,27.3525l.025.01.02.008a.09447.09447,0,0,0,.024.007C13.85461,27.3685,13.83261,27.3615,13.80962,27.3525Zm-5.581-7.683h.004v-.001h-.004Z"/><path class="cls-4" d="M8.28941,19.1189c-.019.186-.033.368-.047.54.012-.172.025-.354.047-.54"/><path class="cls-4" d="M9.21962,16.9235a1.80692,1.80692,0,0,0-.301.298.245.245,0,0,1,.029-.039c.029-.035.058-.068.09-.1a.91631.91631,0,0,1,.07-.069c.023-.023.048-.045.074-.067l.023-.019v-.001Z"/><path class="cls-2" d="M19.25151,23.5065l-.01.006.006-.009Z"/><path class="cls-2" d="M26.56241,19.6589h-.001c-.005-.057-.006-.115-.012-.175.006.06.009.118.013.175"/><path class="cls-2" d="M19.25151,23.5065l-.01.006.006-.009Z"/><path class="cls-2" d="M21.60391,21.7937a.19108.19108,0,0,0,.021-.009l-.017.008-.012.004-.006.002a.05556.05556,0,0,1-.023.004A.11807.11807,0,0,0,21.60391,21.7937Z"/><path class="cls-2" d="M23.78412,18.2028v.007l-.001.002c-.554.532-1.414,1.473-1.938,2.033.174.324.135,1.395-.22,1.54a.11938.11938,0,0,0,.016-.008.17907.17907,0,0,0,.034-.022.07858.07858,0,0,0,.02-.017l.019-.019a.28258.28258,0,0,0,.038-.045.55039.55039,0,0,0,.033-.054.26564.26564,0,0,0,.015-.029c.004-.011.01-.021.014-.032a.48276.48276,0,0,0,.027-.066c.008-.023.017-.048.023-.073a.29532.29532,0,0,0,.01-.038.6562.6562,0,0,0,.02-.088c.008-.034.014-.067.019-.102.009-.061.015-.124.019-.187.002-.027.003-.053.005-.081.001-.06.001-.118,0-.176-.003-.06-.008-.117-.014-.172-.004-.028-.007-.054-.011-.08a.78983.78983,0,0,0-.074-.251c.487-.521,1-1.083,1.514-1.608.061-.064.122-.127.184-.19l.027-.026c.077-.078.151-.151.22-.217Z"/><path class="cls-5" d="M19.24741,23.5041l-.006.008.01-.006-.004-.003Zm7.318-3.838-.001.001v.002h.004v-.004Z"/><path class="cls-5" d="M26.5074,19.1185c.019.187.033.369.046.54-.011-.171-.024-.353-.046-.54m-.658-1.936c-.029-.035-.058-.068-.09-.1-.022-.024-.046-.047-.07-.069-.024-.023-.048-.045-.075-.067l-.023-.019v-.001l-.015-.003a1.8182,1.8182,0,0,1,.302.299A.27023.27023,0,0,0,25.84941,17.1825Zm-4.931,10.195a.10033.10033,0,0,0,.023-.007.0872.0872,0,0,1,.021-.007A.188.188,0,0,0,20.91841,27.37749Z"/><path class="cls-6" d="M8.2326,19.6687h-.004v-.004l.003.002.001.001Zm.002-.01c.004-.057.007-.115.013-.175-.006.06-.008.118-.012.175Zm5.62,7.711-.02-.007-.025-.01c.023.009.045.016.069.025l-.024-.007Zm11.736-10.442.024.019a.78456.78456,0,0,1,.074.067c.024.021.048.045.07.068.032.032.061.065.09.1a.44164.44164,0,0,1,.029.04c.02.025.039.051.058.075l.019.027c.019.027.036.053.054.081l.017.028a.12782.12782,0,0,0,.009.016l.023.041c.032.055.061.112.088.17a.73364.73364,0,0,1,.033.07c.012.029.025.057.036.086.032.08.06.161.086.244l.003.011c.013.043.026.087.038.13.015.054.028.108.041.164.011.05.022.1.032.151l.013.058c.015.082.029.165.039.246a1.05632,1.05632,0,0,1,.016.109.28683.28683,0,0,1,.005.041c.007.05.013.099.019.149l.001.014c.021.182.034.358.045.526-.04.04-.081.081-.123.122-.043.039-.085.08-.129.118-.125.115-.254.224-.385.329l-.012.01c-.065.053-.132.102-.198.153l-.001.001c-.034.025-.069.05-.102.073-.034.025-.069.05-.102.073l-.002.002c-.058.04-.113.08-.172.118l-.001.001c-.117.079-.234.153-.355.224-.037.022-.073.044-.109.064a1.25252,1.25252,0,0,1-.117.067c-.064.038-.129.073-.195.108-.068.038-.137.073-.205.109-.013.006-.026.012-.04.017a38.526,38.526,0,0,1-5.054,1.702.13924.13924,0,0,1-.028.012l-.006.003c-.096.036-.193.076-.292.115-.238.097-.479.199-.724.282a.17154.17154,0,0,1-.03.009,2.236,2.236,0,0,1-.359.087c-.017.003-.034.006-.052.008-.025.002-.05.005-.074.008a.15149.15149,0,0,0-.021.003h-.001c-.021.002-.041.005-.061.006-.028.003-.057.004-.085.006-.038.001-.081.001-.119.001h-.003c-.038,0-.082,0-.12-.001-.027-.002-.056-.003-.084-.006-.02-.001-.041-.004-.061-.006h-.003l-.047-.004c-.033-.005-.067-.009-.099-.015a2.24955,2.24955,0,0,1-.358-.087.17113.17113,0,0,1-.03-.009c-.248-.084-.492-.187-.731-.285-.096-.039-.191-.077-.286-.112l-.005-.003a.118.118,0,0,1-.028-.012,38.5389,38.5389,0,0,1-5.055-1.702c-.013-.005-.026-.011-.039-.017-.079-.041-.156-.082-.233-.125a.53175.53175,0,0,1-.057-.031c-.025-.013-.049-.026-.074-.04-.028-.015-.054-.03-.082-.046-.042-.024-.085-.049-.128-.075-.078-.045-.154-.092-.23-.141-.051-.032-.102-.065-.151-.097-.067-.043-.134-.088-.2-.136-.046-.032-.093-.064-.138-.099l-.009-.006c-.133-.099-.265-.201-.394-.309q-.201-.165-.389-.345c-.042-.041-.083-.081-.123-.122.011-.172.024-.354.046-.54.007-.063.015-.126.023-.19.011-.077.022-.155.035-.234l.008-.041c.003-.026.008-.053.013-.08l.004-.019.002-.01c.013-.059.026-.121.039-.18.011-.045.022-.089.033-.133.015-.054.029-.108.046-.161.013-.042.027-.083.04-.125.013-.043.029-.083.045-.124l.003-.006.053-.122c.023-.051.048-.102.074-.15l.033-.058c.006-.012.014-.025.021-.037a.129.129,0,0,0,.009-.016c.023-.038.046-.073.071-.109l.019-.026c.019-.025.038-.051.058-.076a.32713.32713,0,0,1,.029-.039c.029-.035.058-.069.09-.101.022-.023.045-.046.07-.068a.96825.96825,0,0,1,.075-.067l.023-.019a10.77385,10.77385,0,0,0-2.36,1.003,10.50717,10.50717,0,0,0,2.086,5.81c.042.055.085.111.128.166a11.00361,11.00361,0,0,0,4.062,3.174c.071.032.143.062.215.094.064.027.13.054.195.079a10.50115,10.50115,0,0,0,3.788.727h.027c.014.001.03.001.045.001.019,0,.036,0,.054-.001h.023a10.50773,10.50773,0,0,0,3.45-.603.25405.25405,0,0,1,.044-.015l.022-.008.003-.002a10.4639,10.4639,0,0,0,.981-.412c.057-.026.113-.055.17-.084.069-.034.136-.07.204-.107.073-.037.144-.078.217-.119.105-.06.21-.121.313-.183a10.55233,10.55233,0,0,0,1.984-1.558c.069-.069.136-.135.2-.205a10.53282,10.53282,0,0,0,2.881-6.761,10.772,10.772,0,0,0-2.346-.996Zm-6.344,6.576.004.003-.01.005Zm-3.698,0,.006.008-.01-.006.004-.003Zm11.012-3.845c-.005-.057-.006-.115-.012-.175.006.06.009.118.013.175Zm.007.01h-.004v-.001l.001-.002.003-.001Z"/><path class="cls-5" d="M26.56441,19.66949h.004v-.001h-.004Zm-5.646,7.708a.10033.10033,0,0,0,.023-.007.0872.0872,0,0,1,.021-.007A.188.188,0,0,0,20.91841,27.37749Z"/><path class="cls-3" d="M26.50792,19.133l-.001-.015c-.006-.049-.012-.099-.019-.148-.006-.049-.013-.101-.021-.15-.014-.102-.032-.204-.052-.304-.01-.051-.02-.101-.032-.152-.013-.055-.026-.109-.041-.163-.011-.043-.025-.087-.038-.131l-.003-.01c-.026-.083-.053-.164-.085-.244-.012-.029-.025-.057-.037-.086a.63461.63461,0,0,0-.033-.07c-.027-.059-.056-.115-.088-.171l-.023-.04c-.016-.025-.03-.05-.047-.073a1.94566,1.94566,0,0,0-.41-.451h.001l.012.002v-.001c.02-.077.632-2.591-.045-3.437a2.9346,2.9346,0,0,1-1.476,1.383,7.16292,7.16292,0,0,0-.364-3.813,9.13923,9.13923,0,0,1-3.201,3.577,50.63263,50.63263,0,0,0-3.107-5.806,50.63169,50.63169,0,0,0-3.107,5.806,9.16241,9.16241,0,0,1-3.201-3.577,7.16282,7.16282,0,0,0-.364,3.813,2.93458,2.93458,0,0,1-1.476-1.383c-.68.85-.06,3.386-.045,3.438l.014-.002a2.00565,2.00565,0,0,0-.479.56c-.01.019-.021.038-.033.058-.026.048-.051.099-.074.15l-.053.122-.003.006c-.016.041-.032.082-.045.124s-.028.083-.041.125c-.013.044-.026.088-.037.131l-.008.03c-.027.103-.052.208-.072.314l-.002.01c-.006.031-.012.063-.016.095l-.001.004-.008.041c-.008.054-.017.109-.023.164l-.003.021c-.036.265-.058.528-.079.779v.001c.041.041.082.08.124.121q.1875.1785.389.345.192.162.394.309l.009.005c.047.034.092.067.138.099.066.049.133.094.2.137.049.032.1.064.151.096.076.05.152.096.23.142.042.026.086.051.128.075.028.016.054.031.082.045.025.015.049.028.074.041a.53271.53271,0,0,0,.057.031c.076.042.153.083.231.122a2.24652,2.24652,0,0,1,.557-1.911v-.944l-.005.006a1.3812,1.3812,0,0,0,.005-.175l.007.008v-.008c.656.638,1.322,1.375,1.946,2.043-.224.412-.096,2.07.604,1.403v-.001a1.80318,1.80318,0,0,0,.242-.487,14.10543,14.10543,0,0,0,2.058,1.915,3.29511,3.29511,0,0,0,1.12.381c.032.006.065.01.099.015.016.003.032.004.048.006.02.001.042.004.063.004.027.003.056.004.084.006.038.001.082.001.119.001h.003c.038,0,.082,0,.12-.001.027-.002.057-.003.084-.006.021-.001.041-.004.061-.006h.003l.019-.003c.025-.003.05-.006.075-.008.017-.002.035-.005.052-.008a3.22239,3.22239,0,0,0,1.112-.378,14.31242,14.31242,0,0,0,2.066-1.918,1.80287,1.80287,0,0,0,.242.487v.001a.411.411,0,0,0,.333.153h.002a.08518.08518,0,0,0,.023-.004l.006-.002.011-.004a.177.177,0,0,0,.034-.016.17208.17208,0,0,0,.033-.022.08412.08412,0,0,0,.021-.018.10669.10669,0,0,0,.019-.018.53024.53024,0,0,0,.037-.046c.012-.017.022-.035.034-.053.004-.011.01-.019.015-.03.004-.01.01-.02.014-.032a.6288.6288,0,0,0,.026-.065c.009-.023.016-.048.024-.073.004-.012.007-.025.01-.038.007-.029.014-.058.02-.089.007-.033.013-.067.019-.101.009-.062.015-.124.019-.187.001-.028.003-.054.004-.081.002-.06.002-.118,0-.177-.003-.059-.007-.116-.013-.171-.004-.028-.007-.054-.011-.08a.86619.86619,0,0,0-.076-.249l.001-.002c.488-.521,1-1.083,1.514-1.608.062-.065.123-.127.185-.19l.027-.026c.072-.073.147-.145.219-.217v.007l.008-.007a1.03326,1.03326,0,0,0,.007.181l-.007-.012v.943a2.24875,2.24875,0,0,1,.556,1.912c.068-.035.137-.07.203-.106.028-.015.057-.031.085-.047.038-.019.074-.039.11-.061.04-.021.079-.042.117-.067.036-.021.073-.042.109-.064.121-.072.239-.146.355-.224l.002-.002c.058-.038.113-.077.172-.118l.001-.001c.034-.024.068-.048.102-.073.033-.025.068-.05.102-.074h.001c.066-.051.133-.101.198-.153l.012-.011c.131-.104.261-.213.386-.328.043-.038.086-.079.128-.118l.124-.121v-.002C26.54091,19.491,26.52692,19.315,26.50792,19.133Z"/><path class="cls-4" d="M26.55371,19.6589c-.013-.172-.028-.354-.047-.54.022.186.035.368.047.54"/><path class="cls-4" d="M25.87822,17.2219a1.80661,1.80661,0,0,0-.301-.298l.014.002v.002l.023.019a.81308.81308,0,0,1,.075.067c.025.022.048.045.07.068.032.032.061.066.09.101A.32737.32737,0,0,1,25.87822,17.2219Z"/><path class="cls-7" d="M19.896,25.4259c0,.448-1.119.81-2.502.81h-.006c-1.383,0-2.502-.362-2.502-.81s1.119-.808,2.503-.808h.004c1.384,0,2.503.362,2.503.808"/><path class="cls-7" d="M22.46881,23.9208c0,.27-.673.487-1.505.487h-.004c-.831,0-1.504-.217-1.504-.487s.673-.486,1.505-.486h.002C21.79581,23.4348,22.46881,23.6528,22.46881,23.9208Z"/><path class="cls-6" d="M17.39821,11.5753a31.74864,31.74864,0,0,1,.364,5.141,31.41756,31.41756,0,0,1-.364,5.142,31.41647,31.41647,0,0,1-.364-5.142,31.85979,31.85979,0,0,1,.364-5.141"/><path class="cls-6" d="M16.04671,21.1206v-.001l-.001-.002a14.5905,14.5905,0,0,1-4.464-7.789c1.364,2.729,3.022,5.292,4.589,7.906C16.12869,21.1966,16.0887,21.1586,16.04671,21.1206Z"/><path class="cls-6" d="M11.54732,17.0035a2.28118,2.28118,0,0,1-1.712-1.28h-.001a1.98323,1.98323,0,0,1-.147-.434c.196.167.39.341.581.513-.026-.024-.053-.049-.078-.073.309.278.616.561.916.847-.044-.04-.086-.08-.13-.12C11.16631,16.6365,11.35931,16.8175,11.54732,17.0035Z"/><path class="cls-6" d="M23.20082,13.3281a14.596,14.596,0,0,1-4.464,7.79l-.002.001v.001c-.042.038-.081.077-.124.115C20.17781,18.6211,21.83681,16.0581,23.20082,13.3281Z"/><path class="cls-6" d="M25.09471,15.2897a1.98329,1.98329,0,0,1-.147.434h-.001a2.31474,2.31474,0,0,1-.697.854l-.002.001a.18509.18509,0,0,1-.025.017.02825.02825,0,0,1-.01.009,2.18127,2.18127,0,0,1-.978.399.273.273,0,0,1,.024-.024c.032-.031.066-.064.098-.096.019-.017.037-.035.055-.052.016-.016.033-.031.048-.048l.017-.014.043-.043.007-.005.004-.006h.001c.092-.086.183-.173.274-.259-.04.035-.078.072-.117.108.295-.283.598-.562.903-.835-.026.024-.052.049-.078.073C24.7057,15.6307,24.8987,15.4557,25.09471,15.2897Z"/></svg>