<svg xmlns:xlink="http://www.w3.org/1999/xlink" id="Main" xmlns="http://www.w3.org/2000/svg" viewBox="0 0 538.73 237.07" width="538.73"  height="237.07" >
  <path d="M60.13,211.14c0,10.96-5.87,20.55-14.63,25.81-.33.2-.77.13-1.03-.15l-10.09-10.74c-.42-.44-.24-1.16.34-1.36,5.63-1.93,9.68-7.27,9.68-13.56,0-8-6.55-14.46-14.58-14.33-7.86.13-14.09,6.71-14.09,14.56v24.76c0,.66-.72,1.05-1.28.71C5.89,231.63.14,222.26,0,211.52c-.21-16.51,13.13-30.21,29.64-30.44,16.8-.23,30.49,13.32,30.49,30.06ZM479.5,193.14c-6.34,0-10.76,3.66-12.35,5.68h-.3v-4.1c0-.46-.38-.84-.84-.84h-7.54c-.46,0-.84.38-.84.84v40.71c0,.46.38.84.84.84h8.51c.46,0,.84-.38.84-.84v-22.89c0-6.09,3.95-10.34,9.77-10.34s9.61,4.25,9.61,10.34v22.89c0,.46.38.84.84.84h8.49c.46,0,.84-.38.84-.84v-23.56c0-11.2-7.18-18.73-17.88-18.73ZM409.11,193.38c-.68-.11-1.81-.25-3.23-.25-5.35,0-9.41,3.49-11.04,5.63h-.3v-4.05c0-.46-.38-.84-.84-.84h-7.49c-.46,0-.84.37-.84.84v40.72c0,.46.38.84.84.84h8.45c.46,0,.84-.38.84-.84v-23.08c0-6.38,3.88-10.34,10.11-10.34,1.24,0,2.26.09,2.98.18.65.08,1.21-.42,1.21-1.07v-6.92c0-.41-.29-.76-.7-.83ZM381.47,235.12c.22.55-.19,1.15-.78,1.15h-9.38c-.35,0-.66-.21-.78-.54l-4.28-11.13h-22.94l-4.28,11.13c-.12.32-.44.54-.78.54h-8.99c-.59,0-1-.6-.78-1.15l21.09-53.5c.13-.32.44-.53.78-.53h9.18c.34,0,.65.21.78.53l21.17,53.5ZM346.97,214.75h15.52l-7.76-20.25-7.76,20.25ZM538.73,210.4v25c0,.46-.38.84-.84.84h-7.5c-.46,0-.84-.37-.84-.84v-4.07h-.3c-1.49,1.79-5.59,5.7-13.04,5.7-4.19,0-8.03-1.33-10.83-3.73-2.75-2.37-4.27-5.57-4.27-9.02,0-4.16,2.01-7.68,5.82-10.17,3.72-2.44,8.89-3.73,14.94-3.73h6.8v-.72c0-4.83-3.04-7.84-7.93-7.84-5.27,0-6.9,3.27-7.37,4.79-.14.45-.56.75-1.03.75h-8.03c-.68,0-1.19-.61-1.06-1.27.36-1.92,1.48-5.65,4.98-8.69,3.23-2.81,7.58-4.29,12.6-4.29,10.87,0,17.89,6.79,17.89,17.3ZM528.69,217.45h-6.71c-6.92,0-10.72,2.17-10.72,6.1,0,3.3,2.61,5.27,6.97,5.27,5.96,0,10.46-3.67,10.46-8.8v-2.57ZM181.74,202.76c4.98,0,9.27,2.95,11.22,7.2.16.35.5.57.88.57h8.31c.55,0,.95-.52.81-1.05-.08-.31-.14-.55-.14-.55-2.67-9.12-11.09-15.79-21.08-15.79-12.24,0-22.14,10.01-21.96,22.29.17,11.95,10.35,21.82,22.3,21.64,9.92-.15,18.23-6.87,20.8-15.99.15-.53-.26-1.06-.81-1.06h-8.38c-.37,0-.71.21-.87.54-2.01,4.08-6.21,6.89-11.07,6.89-6.82,0-12.34-5.53-12.34-12.34s5.52-12.34,12.34-12.34ZM156.56,214.68c.23,12.46-9.92,22.61-22.38,22.38-11.74-.22-21.33-9.8-21.55-21.55-.23-12.46,9.92-22.61,22.38-22.38,11.74.22,21.33,9.8,21.55,21.55ZM146.93,215.51c.23-7.14-5.6-12.97-12.74-12.74-6.46.21-11.72,5.47-11.93,11.93-.23,7.14,5.6,12.97,12.74,12.74,6.46-.21,11.72-5.47,11.93-11.93ZM113.52,234.85c.5.54.12,1.42-.61,1.42h-10.84c-.27,0-.54-.12-.72-.32l-19.1-20.85h-.53v20.33c0,.46-.38.84-.84.84h-9.11c-.46,0-.84-.38-.84-.84v-53.52c0-.46.38-.84.84-.84h23.38c5.81-.03,16.6,4.06,16.6,17.03,0,8.98-5.78,16.17-16.79,16.99l18.57,19.75ZM91.06,206.55c3.43,0,6.02-.73,7.76-2.17,1.74-1.44,2.61-3.44,2.61-5.97s-.79-4.36-2.37-5.76c-1.59-1.39-3.88-2.1-6.89-2.1h-10.45v15.99h9.34ZM311.19,227.89c-2.81.65-8.95.66-8.95-6.8v-18.88h9.14c.46,0,.84-.38.84-.84v-6.65c0-.46-.38-.84-.84-.84h-9.14v-11.96c0-.66-.73-1.06-1.28-.71l-9.07,5.65c-.25.15-.4.42-.4.71v6.31h-5.83c-.46,0-.84.38-.84.84v6.65c0,.46.38.84.84.84h5.82v19.66c0,13.02,11.04,15.21,15.29,15.21,2,0,3.52-.42,4.79-.7.38-.09.66-.43.66-.82v-6.85c0-.54-.5-.94-1.03-.82ZM226.6,215.1l16.77-19.85c.46-.55.07-1.38-.64-1.38h-10.48c-.29,0-.57.13-.75.35l-13.73,16.41h-.61v-28.72c0-.66-.73-1.06-1.29-.71l-9.07,5.66c-.25.15-.4.42-.4.71v47.86c0,.46.38.84.84.84h9.07c.46,0,.84-.38.84-.84v-16.08h.5l15.15,16.73c.11.12.26.18.42.18h11.22c.74,0,1.12-.88.61-1.41l-18.46-19.75ZM281.79,203.5c.79,1.33,3.58,6.38,2.78,12.82-.12.94-.29,1.75-.46,2.41-.1.37-.43.63-.81.63h-32.07c.55,2.1,2.93,8.99,11.86,8.99,4.3,0,7.57-1.84,9.09-3.55.19-.21.45-.34.74-.34h8.8c.63,0,1.04.67.75,1.23-1.92,3.67-5.47,7.32-10.47,9.56-2.71,1.21-5.67,1.83-8.82,1.83-4.09,0-7.9-.98-11.31-2.9-5.82-3.28-11.14-9.73-11.14-19.07h0s0,0,0,0c.01-1.79.26-7.5,4.26-12.91.54-.73,2.86-3.76,6.97-6.11,3.42-1.95,7.16-2.94,11.14-2.94,8.71,0,15.32,4.7,18.71,10.37ZM274.59,211.47c-.34-1.66-2.76-9.69-11.5-9.69-6.12,0-10.74,4.01-12.04,9.69h23.54ZM450.94,203.5c.79,1.33,3.58,6.38,2.78,12.82-.12.94-.29,1.75-.46,2.41-.1.37-.43.63-.81.63h-32.07c.55,2.1,2.93,8.99,11.86,8.99,4.3,0,7.57-1.84,9.09-3.55.19-.21.45-.34.74-.34h8.8c.63,0,1.04.67.75,1.23-1.92,3.67-5.47,7.32-10.47,9.56-2.71,1.21-5.67,1.83-8.82,1.83-4.09,0-7.9-.98-11.31-2.9-5.82-3.28-11.14-9.73-11.14-19.07h0s0,0,0,0c.01-1.79.26-7.5,4.26-12.91.54-.73,2.86-3.76,6.97-6.11,3.42-1.95,7.16-2.94,11.14-2.94,8.71,0,15.32,4.7,18.71,10.37ZM443.74,211.47c-.34-1.66-2.76-9.69-11.5-9.69-6.12,0-10.74,4.01-12.04,9.69h23.54Z" fill="#DE3341"></path>
  <g fill="#DE3341">
    <polygon points="147.94 59.83 227.44 0 227.44 136.18 147.94 136.18 147.94 59.83" fill="#DE3341"></polygon>
    <polygon points="390.79 62.61 390.79 136.18 380.9 136.18 380.9 59.03 390.79 62.61" fill="#DE3341"></polygon>
    <polygon points="363.56 52.77 363.56 136.18 353.67 136.18 353.67 49.2 358.62 50.98 363.56 52.77" fill="#DE3341"></polygon>
    <polygon points="336.33 42.93 336.33 136.18 326.44 136.18 326.44 39.35 331.39 41.15 336.33 42.93" fill="#DE3341"></polygon>
    <polygon points="309.12 33.09 309.12 136.18 299.23 136.18 299.23 29.52 304.17 31.31 309.12 33.09" fill="#DE3341"></polygon>
    <polygon points="281.89 23.26 281.89 136.18 272 136.18 272 19.68 276.95 21.46 281.89 23.26" fill="#DE3341"></polygon>
    <polygon points="254.66 13.41 254.66 136.18 244.77 136.18 244.77 9.83 249.72 11.63 254.66 13.41" fill="#DE3341"></polygon>
  </g>
  <g fill="#DE3341">
    <path d="M63.56,94.74h9.99v2.37h-7.28v3.85h6.89v2.31h-6.89v3.87h7.41v2.37h-10.11v-14.77Z" fill="#DE3341"></path>
    <path d="M79.56,107.96l1.37-2.12c1.02.92,2.46,1.46,3.87,1.46,1.52,0,2.35-.67,2.35-1.87s-.98-1.62-3.02-2.31c-2.02-.67-4.02-1.64-4.02-4.25s2.06-4.33,5.04-4.33c1.73,0,3.08.48,4.27,1.27l-1.25,2.16c-.83-.58-1.89-1.02-3.04-1.02-1.44,0-2.31.65-2.31,1.79,0,1.21,1.06,1.56,2.91,2.21,2.21.75,4.14,1.58,4.14,4.31s-2.12,4.47-5.24,4.47c-2.14,0-3.95-.79-5.08-1.77Z" fill="#DE3341"></path>
    <path d="M107.76,97.12h-4.93v12.4h-2.71v-12.4h-4.97v-2.37h12.61v2.37Z" fill="#DE3341"></path>
    <path d="M111.76,108.25c0-.87.69-1.58,1.56-1.58s1.58.71,1.58,1.58-.71,1.58-1.58,1.58-1.56-.71-1.56-1.58Z" fill="#DE3341"></path>
  </g>
  <g fill="#DE3341">
    <path d="M423.06,94.79v14.92h-2.6v-12.05l-3.54,2.02-.58-2.27,4.56-2.62h2.16Z" fill="#DE3341"></path>
    <path d="M441.32,100.95c0,4.85-2.87,8.8-8.78,8.95l-.54-2.23c3.93-.06,6.12-1.85,6.68-4.72-.67.77-1.96,1.42-3.48,1.42-2.64,0-4.5-1.81-4.5-4.62s2.23-5.04,5.22-5.04,5.39,2,5.39,6.24ZM433.2,99.66c0,1.58,1.02,2.66,2.66,2.66s2.85-1.04,2.85-2.54c0-1.71-1.17-2.83-2.77-2.83s-2.75,1.1-2.75,2.71Z" fill="#DE3341"></path>
    <path d="M457.64,100.95c0,4.85-2.87,8.8-8.78,8.95l-.54-2.23c3.93-.06,6.12-1.85,6.68-4.72-.67.77-1.96,1.42-3.47,1.42-2.64,0-4.5-1.81-4.5-4.62s2.23-5.04,5.22-5.04,5.39,2,5.39,6.24ZM449.52,99.66c0,1.58,1.02,2.66,2.66,2.66s2.85-1.04,2.85-2.54c0-1.71-1.17-2.83-2.77-2.83s-2.75,1.1-2.75,2.71Z" fill="#DE3341"></path>
    <path d="M469.53,105.92h-6.49v-1.89l6.64-9.09h2.46v8.84h2.16v2.14h-2.16v3.79h-2.6v-3.79ZM469.53,103.78v-5.2l-3.83,5.2h3.83Z" fill="#DE3341"></path>
  </g>
</svg>